<?xml version="1.0" standalone="no"?><!DOCTYPE svg PUBLIC "-//W3C//DTD SVG 1.1//EN" "http://www.w3.org/Graphics/SVG/1.1/DTD/svg11.dtd"><svg t="1557910811885" class="icon" style="" viewBox="0 0 1024 1024" version="1.1" xmlns="http://www.w3.org/2000/svg" p-id="1450" xmlns:xlink="http://www.w3.org/1999/xlink" width="200" height="200"><defs><style type="text/css"></style></defs><path d="M719.5 419.2l-57.2 490.5H374.7l-57.3-490.5" fill="#FFD524" p-id="1451"></path><path d="M518.5 608.5m-66.6 0a66.6 66.6 0 1 0 133.2 0 66.6 66.6 0 1 0-133.2 0Z" fill="#FFFFFF" p-id="1452"></path><path d="M518.5 123.4c-19.3 0-38 2.9-55.7 8C547 155.6 608.6 233 608.6 324.9H720c0-111.3-90.2-201.5-201.5-201.5z" fill="#F5B200" p-id="1453"></path><path d="M799.7 372.1c0-32.8-19.7-61-47.9-73.6C738.6 181.4 639.1 90 518.5 90c-120.6 0-220.1 91.4-233.3 208.5-28.2 12.6-47.9 40.8-47.9 73.6 0 33.5 20.5 62.2 49.7 74.4l54.6 467.1c2 16.8 16.2 29.5 33.2 29.5h287.6c17 0 31.2-12.7 33.2-29.5L750 446.4c29.1-12.1 49.7-40.9 49.7-74.3zM518.5 156.8c81.2 0 149.2 57.9 164.7 134.7H353.8c15.5-76.7 83.4-134.7 164.7-134.7z m114 719.5H404.4L355 452.6h105.5c18.5 0 33.4-15 33.4-33.4 0-18.5-15-33.4-33.4-33.4H317.8c-7.6 0-13.7-6.2-13.7-13.7 0-7.6 6.2-13.7 13.7-13.7h401.3c7.6 0 13.7 6.2 13.7 13.7 0 7.6-6.2 13.7-13.7 13.7h-63.8c-18.5 0-33.4 15-33.4 33.4 0 18.5 15 33.4 33.4 33.4H682l-49.5 423.7z" fill="#1C1C1C" p-id="1454"></path><path d="M556 452.6h11.5c18.5 0 33.4-15 33.4-33.4 0-18.5-15-33.4-33.4-33.4H556c-18.5 0-33.4 15-33.4 33.4-0.1 18.4 14.9 33.4 33.4 33.4zM518.5 491C453.7 491 401 543.7 401 608.5s52.7 117.4 117.4 117.4c64.8 0 117.5-52.7 117.5-117.4 0-64.8-52.7-117.5-117.4-117.5z m0 168.1c-27.9 0-50.6-22.7-50.6-50.6 0-27.9 22.7-50.6 50.6-50.6s50.6 22.7 50.6 50.6c0 27.9-22.7 50.6-50.6 50.6z" fill="#1C1C1C" p-id="1455"></path></svg>